<svg width="30" height="30" viewBox="0 0 30 30" fill="none" xmlns="http://www.w3.org/2000/svg">
<g clip-path="url(#clip0_422_2516)">
<path d="M8.52058 0.845972C8.96533 1.16706 9.2028 1.534 9.37499 2.05058C9.37499 2.39862 9.37499 2.74667 9.37499 3.10526C12.256 3.10526 15.1371 3.10526 18.1055 3.10526C18.1055 2.77655 18.1055 2.44784 18.1055 2.10917C18.1741 1.87425 18.2219 1.72478 18.3398 1.52323C18.364 1.48131 18.3882 1.43939 18.4131 1.3962C18.6727 1.00304 19.0643 0.751996 19.5154 0.622355C20.091 0.530991 20.6207 0.575206 21.1084 0.922648C21.5442 1.27919 21.8264 1.65983 21.9141 2.22636C21.918 2.37957 21.9196 2.53103 21.9177 2.68412C21.9175 2.72472 21.9172 2.76532 21.9169 2.80715C21.9162 2.90652 21.9152 3.00589 21.9141 3.10526C21.9811 3.10404 22.0481 3.10281 22.1171 3.10155C22.3693 3.09726 22.6214 3.0946 22.8736 3.09239C22.982 3.09122 23.0905 3.08963 23.199 3.08758C24.2648 3.06799 25.2096 3.22605 26.0156 3.98417C26.5924 4.62587 26.9088 5.34174 26.8979 6.20507C26.8976 6.25135 26.8972 6.29764 26.8969 6.34533C26.8961 6.44661 26.8952 6.54788 26.8942 6.64915C26.892 6.87179 26.8904 7.09443 26.8888 7.31707C26.888 7.43697 26.8871 7.55687 26.8861 7.67676C26.8802 8.44693 26.8788 9.21712 26.8772 9.98731C26.8755 10.7369 26.8725 11.4864 26.865 12.2359C26.859 12.8317 26.8562 13.4273 26.857 14.0231C26.8574 14.338 26.8561 14.6528 26.8511 14.9678C26.8464 15.2646 26.846 15.5612 26.8485 15.858C26.8488 15.9663 26.8475 16.0746 26.8446 16.1829C26.8327 16.6505 26.8301 17.0489 27.1446 17.4195C27.3269 17.6104 27.5236 17.7805 27.7256 17.95C28.8452 18.967 29.3548 20.783 29.4305 22.238C29.4891 24.1033 28.8156 25.8628 27.5507 27.2264C27.5082 27.2715 27.4657 27.3166 27.4219 27.3631C27.386 27.4027 27.3501 27.4424 27.3131 27.4832C26.3658 28.4912 24.9186 29.1684 23.5547 29.3553C23.4892 29.3649 23.4892 29.3649 23.4224 29.3747C21.647 29.5944 19.7778 29.1411 18.3398 28.0662C18.135 27.8989 17.9414 27.7206 17.7518 27.5363C17.7251 27.5104 17.6984 27.4845 17.6709 27.4578C17.5781 27.3631 17.5781 27.3631 17.4915 27.2582C17.3123 27.0517 17.1809 26.9285 16.9026 26.902C16.8005 26.9001 16.6983 26.9004 16.5962 26.9026C16.5396 26.9021 16.4831 26.9016 16.4248 26.9011C16.2357 26.9001 16.0468 26.9019 15.8578 26.9038C15.7221 26.9036 15.5863 26.9032 15.4506 26.9027C15.1585 26.902 14.8664 26.9025 14.5743 26.9041C14.1121 26.9065 13.6499 26.9061 13.1877 26.9053C12.5393 26.9044 11.891 26.905 11.2426 26.9066C10.5767 26.9083 9.91074 26.9096 9.2448 26.9101C9.20383 26.9101 9.16285 26.9102 9.12064 26.9102C8.67266 26.9105 8.22468 26.9106 7.7767 26.9104C7.73725 26.9104 7.69779 26.9104 7.65714 26.9103C7.49934 26.9103 7.34154 26.9102 7.18374 26.91C6.68562 26.9097 6.18753 26.9103 5.68942 26.912C5.40322 26.9128 5.11703 26.913 4.83083 26.9129C4.69857 26.9131 4.5663 26.9135 4.43403 26.9143C3.27054 26.9209 2.36611 26.8193 1.48177 25.9813C0.75621 25.2149 0.567543 24.3523 0.57026 23.3255C0.569994 23.2512 0.569729 23.1769 0.569455 23.1003C0.568743 22.8956 0.568753 22.6909 0.568892 22.4861C0.568916 22.2647 0.568268 22.0433 0.567713 21.8219C0.566743 21.3887 0.566418 20.9554 0.566353 20.5222C0.566297 20.1698 0.566056 19.8174 0.565685 19.465C0.564653 18.4646 0.564112 17.4641 0.5642 16.4636C0.564204 16.4097 0.564209 16.3558 0.564214 16.3003C0.564219 16.2464 0.564223 16.1925 0.564228 16.1369C0.564276 15.2632 0.563155 14.3896 0.561502 13.5159C0.559816 12.6174 0.559011 11.719 0.559112 10.8205C0.55915 10.3167 0.558832 9.81281 0.557567 9.30895C0.556496 8.87989 0.556248 8.45084 0.557041 8.02178C0.557422 7.8032 0.557437 7.58463 0.556413 7.36604C0.550867 6.10005 0.562251 4.98592 1.4685 3.99882C2.35962 3.16529 3.33367 3.07789 4.49706 3.09428C4.60677 3.09516 4.71648 3.09596 4.82619 3.09668C5.09248 3.0986 5.35873 3.10162 5.62499 3.10526C5.62244 2.9916 5.62244 2.9916 5.61984 2.87564C5.61847 2.77487 5.61713 2.67411 5.61584 2.57334C5.614 2.49867 5.614 2.49867 5.61212 2.42248C5.60723 1.91558 5.75116 1.5478 6.08573 1.16343C6.74338 0.536097 7.72765 0.373288 8.52058 0.845972ZM6.97265 2.16776C6.90149 2.31008 6.90549 2.40348 6.90368 2.56254C6.90293 2.62024 6.90218 2.67794 6.9014 2.73739C6.90097 2.79995 6.90054 2.86251 6.90009 2.92697C6.89962 2.99113 6.89915 3.0553 6.89866 3.12141C6.89785 3.25741 6.89722 3.3934 6.89676 3.5294C6.89575 3.73735 6.89318 3.94526 6.89059 4.1532C6.89 4.28523 6.8895 4.41725 6.88911 4.54928C6.88808 4.61148 6.88705 4.67369 6.886 4.73778C6.88595 5.08587 6.88595 5.08587 7.02548 5.39905C7.21845 5.56944 7.35682 5.58571 7.61489 5.58337C7.80066 5.55668 7.89956 5.46348 8.02734 5.33183C8.09849 5.18951 8.0945 5.09611 8.0963 4.93705C8.09705 4.87935 8.09781 4.82165 8.09858 4.7622C8.09901 4.69964 8.09945 4.63708 8.09989 4.57263C8.10036 4.50846 8.10084 4.44429 8.10133 4.37818C8.10214 4.24219 8.10276 4.10619 8.10323 3.9702C8.10423 3.76224 8.1068 3.55433 8.10939 3.34639C8.10998 3.21437 8.11048 3.08234 8.11088 2.95031C8.1119 2.88811 8.11293 2.8259 8.11399 2.76182C8.11403 2.41372 8.11403 2.41372 7.97451 2.10055C7.78153 1.93016 7.64316 1.91388 7.38509 1.91622C7.19933 1.94291 7.10043 2.03611 6.97265 2.16776ZM19.4531 2.22636C19.3983 2.39086 19.3866 2.49358 19.3851 2.66394C19.3845 2.71675 19.384 2.76957 19.3834 2.82398C19.3831 2.88093 19.3829 2.93787 19.3826 2.99655C19.3823 3.05529 19.382 3.11403 19.3816 3.17455C19.3811 3.29892 19.3807 3.42328 19.3804 3.54765C19.3799 3.73746 19.3781 3.92723 19.3762 4.11704C19.3758 4.23792 19.3755 4.35881 19.3753 4.4797C19.3746 4.53629 19.3738 4.59288 19.3731 4.65119C19.3741 4.96032 19.3914 5.18442 19.5703 5.44901C19.7871 5.59355 19.9633 5.60551 20.2148 5.5662C20.4049 5.45877 20.4858 5.38218 20.5731 5.18224C20.6392 4.92504 20.6429 4.68649 20.6426 4.42202C20.6429 4.36887 20.6431 4.31572 20.6434 4.26095C20.6437 4.14892 20.6437 4.03688 20.6435 3.92485C20.6433 3.75421 20.6447 3.58363 20.6462 3.413C20.6463 3.30378 20.6463 3.19457 20.6463 3.08535C20.6468 3.03474 20.6474 2.98413 20.6479 2.93199C20.6452 2.57107 20.5957 2.27735 20.3503 1.99565C19.9636 1.81797 19.7038 1.89973 19.4531 2.22636ZM2.2998 5.08647C1.66401 5.98716 1.87499 6.98152 1.87499 8.08573C9.70605 8.08573 17.5371 8.08573 25.6055 8.08573C25.7301 6.30646 25.7301 6.30646 25.0085 4.88505C24.5793 4.46779 24.0659 4.38457 23.4876 4.38861C23.4425 4.38869 23.3974 4.38877 23.3509 4.38886C23.2077 4.38918 23.0644 4.38992 22.9211 4.39067C22.8237 4.39096 22.7262 4.39123 22.6287 4.39147C22.3905 4.39211 22.1523 4.39312 21.9141 4.39433C21.9106 4.45408 21.9072 4.51383 21.9037 4.57539C21.8988 4.65488 21.894 4.73438 21.8891 4.81387C21.8869 4.85312 21.8847 4.89237 21.8824 4.93281C21.8437 5.55 21.6732 6.00064 21.2217 6.42886C20.8354 6.74649 20.3797 6.89287 19.8798 6.87174C19.3665 6.80846 18.9029 6.60876 18.541 6.23248C18.1106 5.67877 18.147 5.10033 18.1055 4.39433C15.2244 4.39433 12.3434 4.39433 9.37499 4.39433C9.35566 4.74237 9.33632 5.09042 9.3164 5.44901C9.16229 5.96841 8.94387 6.33294 8.47045 6.6099C7.95841 6.86934 7.46799 6.93327 6.91039 6.79301C6.38747 6.61569 6.07147 6.28873 5.80627 5.81431C5.71152 5.62076 5.67505 5.45974 5.66505 5.24691C5.66259 5.19725 5.66014 5.14759 5.65761 5.09642C5.6553 5.0448 5.653 4.99317 5.65063 4.93998C5.6481 4.88768 5.64557 4.83537 5.64296 4.78148C5.63675 4.65244 5.63077 4.52339 5.62499 4.39433C5.33532 4.38994 5.04566 4.38677 4.75596 4.38467C4.65765 4.38379 4.55934 4.3826 4.46104 4.38107C3.57745 4.36765 2.9443 4.42731 2.2998 5.08647ZM1.87499 9.3748C1.87257 11.7302 1.87016 14.0855 1.86767 16.5122C1.8666 17.2558 1.86553 17.9994 1.86443 18.7655C1.86404 19.4324 1.86404 19.4324 1.86381 20.0992C1.8637 20.3961 1.86326 20.6929 1.86262 20.9898C1.86181 21.3688 1.86158 21.7478 1.86174 22.1268C1.86171 22.2657 1.86147 22.4046 1.86102 22.5435C1.86044 22.7316 1.86058 22.9197 1.8609 23.1078C1.86056 23.1617 1.86022 23.2157 1.85987 23.2713C1.86303 23.9664 1.9716 24.5599 2.45658 25.0823C2.92949 25.5203 3.40865 25.6145 4.03578 25.6123C4.08819 25.6124 4.1406 25.6124 4.1946 25.6125C4.37021 25.6126 4.54582 25.6122 4.72144 25.6119C4.84733 25.6119 4.97321 25.6119 5.0991 25.6119C5.44095 25.612 5.7828 25.6116 6.12465 25.6112C6.48187 25.6108 6.83909 25.6108 7.19631 25.6107C7.8728 25.6106 8.54929 25.6101 9.22578 25.6095C9.99592 25.6088 10.7661 25.6085 11.5362 25.6082C13.1205 25.6076 14.7048 25.6066 16.2891 25.6053C16.2769 25.569 16.2648 25.5327 16.2524 25.4953C16.2365 25.4477 16.2207 25.4002 16.2043 25.3512C16.1886 25.304 16.1729 25.2569 16.1566 25.2083C15.4849 23.1894 15.4464 21.2515 16.3989 19.3101C16.722 18.6783 17.1518 18.1517 17.6367 17.6365C17.6841 17.5835 17.6841 17.5835 17.7324 17.5294C18.6527 16.5397 20.1188 15.885 21.4453 15.7029C21.4883 15.6965 21.5313 15.6901 21.5755 15.6835C22.8624 15.5223 24.0418 15.7487 25.2492 16.1888C25.366 16.2285 25.4858 16.2589 25.6055 16.2889C25.6055 14.0072 25.6055 11.7256 25.6055 9.3748C17.7744 9.3748 9.94335 9.3748 1.87499 9.3748ZM18.75 18.3396C18.6753 18.4073 18.6753 18.4073 18.5992 18.4763C17.6818 19.3459 16.9967 20.6241 16.9241 21.9048C16.8969 23.0073 16.8969 23.0073 17.1094 24.0818C17.1293 24.1443 17.1492 24.2068 17.1698 24.2711C17.6943 25.7543 18.7559 26.9001 20.1535 27.6057C21.4943 28.2455 23.0454 28.2637 24.4336 27.7732C25.9109 27.1711 27.0717 26.0724 27.7093 24.6032C28.2445 23.185 28.245 21.5944 27.6215 20.2048C26.937 18.8263 25.8337 17.7196 24.3686 17.1943C22.4251 16.5553 20.2633 16.936 18.75 18.3396Z" fill="white"/>
<path d="M6.23656 13.0021C6.33156 13.001 6.33156 13.001 6.42847 13C6.913 13.0018 7.40322 13.0504 7.77324 13.3986C8.15897 13.8625 8.19013 14.3451 8.18114 14.9283C8.18227 15.0018 8.1834 15.0753 8.18457 15.151C8.18194 15.6531 8.10818 16.0708 7.76909 16.458C7.31408 16.8705 6.83506 16.8631 6.25121 16.8619C6.17692 16.8636 6.10264 16.8652 6.0261 16.867C5.55906 16.8679 5.1899 16.818 4.80467 16.5397C4.34291 16.0647 4.3147 15.5756 4.31395 14.9393C4.3118 14.8447 4.3118 14.8447 4.3096 14.7481C4.30786 14.2677 4.37958 13.8564 4.67925 13.4692C4.7158 13.4395 4.75236 13.4098 4.79002 13.3793C4.82598 13.3485 4.86193 13.3178 4.89897 13.2861C5.33893 13.0151 5.73084 12.9967 6.23656 13.0021ZM5.62499 14.4303C5.6149 14.5985 5.61138 14.7603 5.614 14.9283C5.61404 14.9743 5.61407 15.0203 5.61411 15.0677C5.6102 15.3135 5.6102 15.3135 5.68358 15.5436C5.8679 15.5453 6.05223 15.5463 6.23656 15.5472C6.28916 15.5477 6.34177 15.5482 6.39597 15.5487C6.47103 15.549 6.47103 15.549 6.54761 15.5493C6.59394 15.5496 6.64027 15.5499 6.68801 15.5502C6.79779 15.5556 6.79779 15.5556 6.85545 15.485C6.86052 15.402 6.86173 15.3188 6.86118 15.2357C6.86089 15.1607 6.86089 15.1607 6.8606 15.0841C6.86011 15.0315 6.85962 14.9789 6.85912 14.9247C6.85885 14.8718 6.85859 14.819 6.85831 14.7646C6.85762 14.6336 6.85666 14.5026 6.85545 14.3717C6.66306 14.2755 6.45144 14.3023 6.24022 14.3021C6.19422 14.3014 6.14822 14.3007 6.10083 14.2999C5.83507 14.2876 5.83507 14.2876 5.62499 14.4303Z" fill="white"/>
<path d="M21.2402 13.0034C21.3137 13.0023 21.3872 13.0012 21.4629 13C21.965 13.0026 22.3827 13.0764 22.7699 13.4155C23.1823 13.8705 23.175 14.3495 23.1738 14.9334C23.1755 15.0076 23.1771 15.0819 23.1788 15.1585C23.1798 15.6255 23.1299 15.9947 22.8515 16.3799C22.3766 16.8417 21.8875 16.8699 21.2512 16.8706C21.1881 16.8721 21.125 16.8735 21.06 16.875C20.5796 16.8767 20.1683 16.805 19.7811 16.5053C19.7514 16.4688 19.7217 16.4322 19.6911 16.3945C19.6604 16.3586 19.6297 16.3226 19.598 16.2856C19.327 15.8456 19.3085 15.4537 19.3139 14.948C19.3133 14.8847 19.3126 14.8213 19.3119 14.7561C19.3137 14.2716 19.3623 13.7814 19.7105 13.4113C20.1744 13.0256 20.657 12.9944 21.2402 13.0034ZM20.6836 14.3291C20.5874 14.5215 20.6142 14.7331 20.614 14.9444C20.6133 14.9903 20.6126 15.0363 20.6118 15.0837C20.6115 15.2034 20.6178 15.323 20.625 15.4424C20.7412 15.5845 20.7412 15.5845 20.9674 15.5731C21.0583 15.5729 21.1493 15.572 21.2402 15.5706C21.2862 15.5705 21.3322 15.5705 21.3796 15.5705C21.6254 15.5744 21.6254 15.5744 21.8555 15.501C21.8571 15.3167 21.8582 15.1323 21.8591 14.948C21.8596 14.8954 21.8601 14.8428 21.8606 14.7886C21.8608 14.7386 21.861 14.6885 21.8612 14.637C21.8615 14.5906 21.8618 14.5443 21.8621 14.4966C21.8675 14.3868 21.8675 14.3868 21.7969 14.3291C21.7139 14.324 21.6307 14.3228 21.5476 14.3234C21.4725 14.3237 21.4725 14.3237 21.396 14.324C21.3434 14.3245 21.2908 14.3249 21.2366 14.3255C21.1837 14.3257 21.1309 14.326 21.0765 14.3263C20.9455 14.3269 20.8145 14.3279 20.6836 14.3291Z" fill="white"/>
<path d="M16.2488 13.005C16.3602 13.0026 16.3602 13.0026 16.4739 13C16.9409 12.999 17.3101 13.0489 17.6953 13.3273C18.1571 13.8023 18.1853 14.2914 18.1861 14.9277C18.1875 14.9908 18.1889 15.0539 18.1904 15.1189C18.1921 15.5993 18.1204 16.0106 17.8208 16.3978C17.7842 16.4274 17.7476 16.4571 17.71 16.4877C17.674 16.5185 17.6381 16.5492 17.601 16.5809C17.1611 16.8519 16.7692 16.8703 16.2634 16.8649C16.2001 16.8656 16.1368 16.8663 16.0715 16.867C15.587 16.8652 15.0968 16.8166 14.7268 16.4684C14.341 16.0045 14.3099 15.5219 14.3189 14.9386C14.3177 14.8652 14.3166 14.7917 14.3154 14.7159C14.3181 14.2139 14.3918 13.7962 14.7309 13.4089C15.1859 12.9965 15.6649 13.0039 16.2488 13.005ZM15.6445 14.382C15.6395 14.465 15.6383 14.5482 15.6388 14.6313C15.639 14.6813 15.6392 14.7313 15.6394 14.7829C15.6399 14.8355 15.6404 14.8881 15.6409 14.9423C15.6411 14.9951 15.6414 15.048 15.6417 15.1024C15.6424 15.2334 15.6433 15.3643 15.6445 15.4953C15.8369 15.5915 16.0486 15.5647 16.2598 15.5649C16.3058 15.5656 16.3518 15.5663 16.3992 15.567C16.5188 15.5673 16.6384 15.561 16.7578 15.5539C16.9 15.4377 16.9 15.4377 16.8885 15.2115C16.8883 15.1205 16.8874 15.0296 16.886 14.9386C16.886 14.8926 16.8859 14.8466 16.8859 14.7993C16.8898 14.5535 16.8898 14.5535 16.8164 14.3234C16.6321 14.3217 16.4478 14.3207 16.2634 14.3197C16.2108 14.3193 16.1582 14.3188 16.104 14.3183C16.054 14.3181 16.0039 14.3179 15.9524 14.3177C15.8829 14.3172 15.8829 14.3172 15.812 14.3168C15.7022 14.3114 15.7022 14.3114 15.6445 14.382Z" fill="white"/>
<path d="M6.24022 13.0034C6.31371 13.0023 6.3872 13.0012 6.46292 13C6.96497 13.0026 7.38267 13.0764 7.76994 13.4155C8.18234 13.8705 8.17499 14.3495 8.17381 14.9334C8.17547 15.0076 8.17714 15.0819 8.17885 15.1585C8.17982 15.6255 8.12992 15.9947 7.85155 16.3799C7.37655 16.8417 6.88746 16.8699 6.25121 16.8706C6.1881 16.8721 6.12499 16.8735 6.05997 16.875C5.57957 16.8767 5.16827 16.805 4.7811 16.5053C4.75141 16.4688 4.72173 16.4322 4.69115 16.3945C4.66041 16.3586 4.62966 16.3226 4.59799 16.2856C4.32697 15.8456 4.30854 15.4537 4.31395 14.948C4.31327 14.8847 4.31259 14.8213 4.31189 14.7561C4.31365 14.2716 4.36227 13.7814 4.7105 13.4113C5.17438 13.0256 5.65701 12.9944 6.24022 13.0034ZM5.68358 14.3291C5.58738 14.5215 5.61417 14.7331 5.614 14.9444C5.61328 14.9903 5.61256 15.0363 5.61182 15.0837C5.61152 15.2034 5.61782 15.323 5.62498 15.4424C5.74119 15.5845 5.74119 15.5845 5.96739 15.5731C6.05834 15.5729 6.14928 15.572 6.24022 15.5706C6.28622 15.5705 6.33222 15.5705 6.37961 15.5705C6.62538 15.5744 6.62538 15.5744 6.85545 15.501C6.85715 15.3167 6.85819 15.1323 6.85912 14.948C6.85961 14.8954 6.8601 14.8428 6.8606 14.7886C6.86079 14.7386 6.86098 14.6885 6.86118 14.637C6.86148 14.5906 6.86179 14.5443 6.86211 14.4966C6.86746 14.3868 6.86746 14.3868 6.79686 14.3291C6.71391 14.324 6.63071 14.3228 6.54761 14.3234C6.47255 14.3237 6.47255 14.3237 6.39597 14.324C6.34337 14.3245 6.29076 14.3249 6.23656 14.3255C6.18372 14.3257 6.13089 14.326 6.07645 14.3263C5.94549 14.3269 5.81454 14.3279 5.68358 14.3291Z" fill="white"/>
<path d="M6.10444 13.005C6.2283 13.0047 6.35204 13.0026 6.47588 13.0004C6.99221 12.9959 7.34629 13.0279 7.74857 13.3741C7.78014 13.4117 7.81172 13.4493 7.84425 13.4881C7.89296 13.5441 7.89296 13.5441 7.94266 13.6012C8.2043 13.9986 8.16402 14.4413 8.16285 14.898C8.16379 14.9712 8.16474 15.0445 8.16571 15.1199C8.16598 15.6342 8.12491 15.9828 7.77833 16.3812C7.73074 16.4378 7.73074 16.4378 7.6822 16.4956C7.29394 16.8263 6.85015 16.8058 6.3672 16.8028C6.24437 16.8023 6.1217 16.804 5.99889 16.8059C5.49661 16.8085 5.14419 16.7741 4.74679 16.4462C4.72118 16.4151 4.69558 16.3839 4.6692 16.3519C4.64284 16.3214 4.61648 16.2908 4.58932 16.2594C4.32059 15.8187 4.30714 15.4141 4.31031 14.909C4.30914 14.8434 4.30797 14.7777 4.30676 14.7101C4.30705 14.2227 4.37266 13.7992 4.68545 13.4112C4.72359 13.381 4.76173 13.3508 4.80103 13.3196C4.83903 13.2882 4.87702 13.2568 4.91616 13.2244C5.28912 12.98 5.67477 13.0049 6.10444 13.005ZM5.6836 14.3157C5.59107 14.5008 5.61662 14.6987 5.61768 14.9017C5.61746 14.9449 5.61723 14.9881 5.617 15.0326C5.61246 15.2677 5.61246 15.2677 5.6836 15.4876C5.86793 15.4893 6.05225 15.4904 6.23658 15.4913C6.28919 15.4918 6.34179 15.4923 6.396 15.4928C6.47105 15.493 6.47105 15.493 6.54763 15.4933C6.59396 15.4936 6.6403 15.4939 6.68803 15.4943C6.79782 15.4996 6.79782 15.4996 6.85548 15.429C6.86124 15.3511 6.86314 15.2728 6.86326 15.1946C6.86333 15.1475 6.86341 15.1004 6.86349 15.0518C6.86315 14.9775 6.86315 14.9775 6.8628 14.9017C6.86303 14.8521 6.86325 14.8026 6.86349 14.7515C6.86337 14.6808 6.86337 14.6808 6.86326 14.6087C6.86319 14.5652 6.86313 14.5217 6.86306 14.4769C6.86658 14.3727 6.86658 14.3727 6.79688 14.3157C6.71393 14.3107 6.63073 14.3095 6.54763 14.31C6.47257 14.3103 6.47257 14.3103 6.396 14.3106C6.34339 14.3111 6.29078 14.3116 6.23658 14.3121C6.18375 14.3123 6.13091 14.3126 6.07648 14.3129C5.94551 14.3136 5.81456 14.3145 5.6836 14.3157Z" fill="white"/>
<path d="M11.2427 13.0035C11.3083 13.0024 11.3739 13.0012 11.4416 13C11.929 13.0003 12.3524 13.0659 12.7405 13.3787C12.7707 13.4168 12.8009 13.455 12.832 13.4943C12.8634 13.5323 12.8949 13.5703 12.9272 13.6094C13.1717 13.9824 13.1468 14.368 13.1467 14.7977C13.147 14.9215 13.1491 15.0453 13.1513 15.1691C13.1557 15.6854 13.1238 16.0395 12.7775 16.4418C12.7399 16.4734 12.7023 16.505 12.6636 16.5375C12.6076 16.5862 12.6076 16.5862 12.5505 16.6359C12.154 16.8969 11.713 16.8573 11.2573 16.8561C11.1482 16.8575 11.1482 16.8575 11.0369 16.8589C10.5794 16.8592 10.2141 16.843 9.83161 16.5695C9.80057 16.5372 9.76952 16.5049 9.73754 16.4716C9.68984 16.424 9.68984 16.424 9.64118 16.3754C9.3408 15.9648 9.34583 15.5494 9.34885 15.0604C9.34935 14.9376 9.34766 14.8149 9.34581 14.6921C9.34313 14.1899 9.37758 13.8374 9.7055 13.44C9.75217 13.4016 9.75217 13.4016 9.79979 13.3624C9.83031 13.3361 9.86082 13.3097 9.89226 13.2826C10.333 13.0138 10.7375 13.0004 11.2427 13.0035ZM10.6641 14.3768C10.6624 14.5612 10.6613 14.7455 10.6604 14.9298C10.6599 14.9824 10.6594 15.035 10.6589 15.0892C10.6587 15.1393 10.6585 15.1893 10.6583 15.2409C10.658 15.2872 10.6577 15.3335 10.6574 15.3813C10.652 15.4911 10.652 15.4911 10.7226 15.5487C10.8006 15.5545 10.8789 15.5564 10.957 15.5565C11.0042 15.5566 11.0513 15.5566 11.0998 15.5567C11.1742 15.5564 11.1742 15.5564 11.25 15.556C11.2995 15.5563 11.3491 15.5565 11.4001 15.5567C11.4473 15.5566 11.4944 15.5566 11.543 15.5565C11.6082 15.5564 11.6082 15.5564 11.6748 15.5563C11.779 15.5598 11.779 15.5598 11.8359 15.4901C11.841 15.4072 11.8422 15.324 11.8416 15.2409C11.8414 15.1658 11.8414 15.1658 11.8411 15.0892C11.8406 15.0366 11.8401 14.984 11.8396 14.9298C11.8393 14.877 11.8391 14.8241 11.8388 14.7697C11.8381 14.6388 11.8371 14.5078 11.8359 14.3768C11.6509 14.2843 11.4529 14.3099 11.25 14.3109C11.2068 14.3107 11.1636 14.3105 11.1191 14.3102C10.8839 14.3057 10.8839 14.3057 10.6641 14.3768Z" fill="white"/>
<path d="M11.2427 13.0029C11.3154 13.0019 11.3882 13.001 11.4631 13C11.9206 12.9998 12.2859 13.0159 12.6684 13.2894C12.6994 13.3218 12.7305 13.3541 12.7625 13.3874C12.7943 13.4191 12.8261 13.4508 12.8588 13.4835C13.1592 13.8942 13.1542 14.3096 13.1511 14.7985C13.1506 14.9213 13.1523 15.044 13.1542 15.1668C13.1569 15.6691 13.1224 16.0215 12.7945 16.4189C12.7634 16.4445 12.7323 16.4701 12.7002 16.4965C12.6697 16.5229 12.6392 16.5492 12.6077 16.5764C12.167 16.8451 11.7625 16.8586 11.2573 16.8554C11.1917 16.8566 11.1261 16.8577 11.0584 16.859C10.571 16.8587 10.1476 16.7931 9.75952 16.4803C9.72931 16.4421 9.6991 16.404 9.66797 16.3647C9.63655 16.3267 9.60513 16.2887 9.57276 16.2496C9.32829 15.8766 9.35319 15.4909 9.35329 15.0613C9.35303 14.9374 9.3509 14.8137 9.34868 14.6898C9.34428 14.1735 9.37623 13.8194 9.72245 13.4171C9.76006 13.3856 9.79767 13.354 9.83643 13.3215C9.87374 13.289 9.91105 13.2565 9.9495 13.223C10.346 12.962 10.787 13.0017 11.2427 13.0029ZM10.6641 14.3688C10.659 14.4518 10.6578 14.535 10.6583 14.6181C10.6585 14.6681 10.6587 14.7182 10.6589 14.7697C10.6594 14.8223 10.6599 14.8749 10.6604 14.9291C10.6607 14.982 10.6609 15.0348 10.6612 15.0892C10.6619 15.2202 10.6629 15.3512 10.6641 15.4821C10.8491 15.5746 11.0471 15.5491 11.25 15.548C11.2932 15.5483 11.3364 15.5485 11.3809 15.5487C11.6161 15.5533 11.6161 15.5533 11.8359 15.4821C11.8376 15.2978 11.8387 15.1135 11.8396 14.9291C11.8401 14.8765 11.8406 14.8239 11.8411 14.7697C11.8413 14.7197 11.8415 14.6696 11.8417 14.6181C11.842 14.5717 11.8423 14.5254 11.8426 14.4777C11.8479 14.3679 11.8479 14.3679 11.7773 14.3102C11.6994 14.3045 11.6211 14.3026 11.543 14.3025C11.4958 14.3024 11.4487 14.3023 11.4001 14.3022C11.3506 14.3025 11.3011 14.3027 11.25 14.3029C11.2005 14.3027 11.1509 14.3025 11.0999 14.3022C11.0527 14.3023 11.0056 14.3024 10.957 14.3025C10.8918 14.3026 10.8918 14.3026 10.8252 14.3027C10.721 14.2991 10.721 14.2991 10.6641 14.3688Z" fill="white"/>
<path d="M11.1256 13.0023C11.2499 13.0042 11.3738 13.0023 11.4981 13C11.9979 12.9981 12.3968 13.0502 12.7734 13.3997C13.1532 13.8089 13.1805 14.2632 13.1708 14.7987C13.1689 14.923 13.1708 15.0469 13.1731 15.1712C13.175 15.671 13.1229 16.0699 12.7734 16.4466C12.3642 16.8263 11.9099 16.8536 11.3744 16.8439C11.2501 16.8421 11.1262 16.8439 11.0019 16.8462C10.5021 16.8481 10.1032 16.796 9.72655 16.4466C9.3468 16.0373 9.31949 15.5831 9.32915 15.0475C9.33104 14.9232 9.32917 14.7993 9.32692 14.675C9.32502 14.1752 9.37708 13.7763 9.72655 13.3997C10.1358 13.0199 10.59 12.9926 11.1256 13.0023ZM10.6641 14.3372C10.6641 14.7239 10.6641 15.1106 10.6641 15.5091C11.0508 15.5091 11.4375 15.5091 11.8359 15.5091C11.8359 15.1223 11.8359 14.7356 11.8359 14.3372C11.4492 14.3372 11.0625 14.3372 10.6641 14.3372Z" fill="white"/>
<path d="M25.3711 13.0226C25.5481 13.125 25.6884 13.2472 25.7813 13.4328C25.8346 13.8197 25.8346 13.8197 25.7161 14.0014C25.3523 14.3976 24.9724 14.7775 24.5918 15.1574C24.5164 15.2328 24.4411 15.3082 24.3658 15.3835C24.2088 15.5406 24.0518 15.6975 23.8946 15.8544C23.693 16.0557 23.4916 16.2572 23.2903 16.4589C23.1353 16.6141 22.9801 16.7693 22.8248 16.9244C22.7505 16.9987 22.6762 17.0731 22.6019 17.1475C22.4985 17.251 22.395 17.3543 22.2914 17.4575C22.2607 17.4884 22.23 17.5192 22.1983 17.551C22.0032 17.7449 21.8887 17.8374 21.6138 17.8566C21.3946 17.8498 21.2874 17.8197 21.1267 17.6705C21.0663 17.6146 21.0663 17.6146 21.0047 17.5576C20.7192 17.2816 20.4354 17.004 20.1545 16.7232C20.0457 16.6145 19.9364 16.5063 19.8271 16.398C19.7575 16.3286 19.6879 16.2591 19.6184 16.1897C19.5858 16.1575 19.5533 16.1254 19.5198 16.0924C19.2268 15.7976 19.2268 15.7976 19.1602 15.6007C19.1648 15.3055 19.1715 15.1889 19.3616 14.9599C19.598 14.7696 19.7345 14.755 20.0391 14.7804C20.2846 14.925 20.4817 15.0918 20.6813 15.294C20.733 15.3462 20.7848 15.3983 20.8381 15.452C20.891 15.5059 20.944 15.5598 20.9985 15.6154C21.0528 15.6702 21.1071 15.7251 21.1631 15.7816C21.2965 15.9163 21.4296 16.0514 21.5625 16.1867C21.8975 15.9105 22.203 15.6111 22.508 15.3024C22.5958 15.2135 22.6838 15.1249 22.7719 15.0364C23.022 14.7848 23.2718 14.533 23.5213 14.2809C23.6746 14.126 23.8282 13.9714 23.982 13.8169C24.0403 13.7583 24.0985 13.6995 24.1566 13.6406C24.2376 13.5585 24.319 13.4767 24.4004 13.3949C24.4466 13.3484 24.4927 13.3018 24.5402 13.2539C24.7896 13.0312 25.0373 12.9579 25.3711 13.0226Z" fill="white"/>
</g>
<defs>
<clipPath id="clip0_422_2516">
<rect width="30" height="30" fill="white"/>
</clipPath>
</defs>
</svg>
