<svg width="30" height="30" viewBox="0 0 30 30" fill="none" xmlns="http://www.w3.org/2000/svg">
<path d="M4.16484 1.02082C4.22343 1.02051 4.28202 1.0202 4.34239 1.01989C4.53826 1.01901 4.73412 1.01897 4.93 1.01893C5.07064 1.01848 5.21129 1.01799 5.35193 1.01745C5.73378 1.01617 6.11563 1.01565 6.49748 1.01535C6.73628 1.01516 6.97508 1.01478 7.21388 1.01436C7.87607 1.01321 8.53826 1.01225 9.20045 1.01208C9.24278 1.01207 9.28512 1.01206 9.32873 1.01204C9.41455 1.01202 9.50035 1.012 9.58616 1.01198C9.62876 1.01197 9.67135 1.01196 9.71523 1.01195C9.75788 1.01194 9.80052 1.01193 9.84446 1.01192C10.5346 1.01171 11.2247 1.01013 11.9148 1.00793C12.6247 1.0057 13.3345 1.00457 14.0444 1.00455C14.4424 1.00452 14.8404 1.00403 15.2385 1.00232C15.6132 1.00079 15.9879 1.00066 16.3627 1.0016C16.4997 1.00171 16.6367 1.00132 16.7737 1.00038C17.8031 0.99377 18.6246 1.06666 19.4531 1.74001C19.5018 1.77649 19.5506 1.81297 19.6008 1.85056C19.9778 2.17179 20.2591 2.63264 20.4492 3.08766C20.465 3.12507 20.4807 3.16249 20.4969 3.20103C20.6763 3.7023 20.6444 4.21118 20.636 4.73561C20.6351 4.83174 20.6343 4.92787 20.6336 5.024C20.6318 5.2575 20.6284 5.49088 20.625 5.72438C20.0062 5.72438 19.3875 5.72438 18.75 5.72438C18.7061 5.08717 18.7061 5.08717 18.694 4.89014C18.6487 4.31164 18.4962 3.77379 18.0469 3.38063C17.4709 2.95763 16.7961 2.9523 16.1066 2.95285C16 2.95247 16 2.95247 15.8912 2.95209C15.7421 2.95176 15.5929 2.95172 15.4438 2.95198C15.2157 2.95217 14.9876 2.95078 14.7596 2.9493C14.6141 2.94917 14.4686 2.94913 14.3232 2.94919C14.2213 2.94838 14.2213 2.94838 14.1173 2.94755C13.6522 2.94588 13.6522 2.94588 13.2422 3.14626C13.1531 3.26438 13.0653 3.38342 12.9783 3.50308C12.6837 3.83666 12.3869 3.90123 11.9522 3.93604C11.6432 3.94816 11.335 3.95005 11.0258 3.94427C10.8252 3.94059 10.6252 3.94357 10.4246 3.94828C9.07327 3.97536 9.07327 3.97536 8.6453 3.57602C8.55521 3.47507 8.47422 3.37214 8.39503 3.26251C8.25 3.07229 8.19092 3.03865 7.96875 2.97048C7.81131 2.95296 7.81131 2.95296 7.64451 2.95531C7.58092 2.95494 7.51733 2.95457 7.45181 2.95419C7.34945 2.95455 7.34945 2.95455 7.24502 2.95491C7.13869 2.95474 7.13869 2.95474 7.03021 2.95457C6.88019 2.95449 6.73017 2.95471 6.58015 2.9552C6.35217 2.95582 6.12421 2.9552 5.89622 2.95445C5.75012 2.95453 5.60402 2.95468 5.45791 2.95491C5.35662 2.95456 5.35662 2.95456 5.25329 2.95419C4.58497 2.95801 3.99438 3.01312 3.45703 3.43923C2.85446 4.0545 2.86227 4.80362 2.86326 5.61487C2.86315 5.69984 2.86301 5.78481 2.86286 5.86978C2.8625 6.10277 2.86251 6.33575 2.86257 6.56874C2.86259 6.82022 2.86226 7.07169 2.86198 7.32317C2.8615 7.81568 2.86134 8.3082 2.8613 8.80071C2.86128 9.20112 2.86116 9.60154 2.86097 10.002C2.86045 11.1376 2.86018 12.2732 2.86023 13.4089C2.86023 13.5007 2.86023 13.5007 2.86024 13.5944C2.86024 13.6863 2.86024 13.6863 2.86024 13.7801C2.86027 14.7731 2.85971 15.7661 2.85888 16.7591C2.85804 17.7791 2.85763 18.7991 2.85768 19.8191C2.8577 20.3916 2.85754 20.9641 2.85691 21.5366C2.85638 22.0241 2.85625 22.5115 2.85665 22.999C2.85684 23.2476 2.85684 23.4961 2.85633 23.7447C2.85587 23.9726 2.85596 24.2004 2.85647 24.4283C2.85656 24.5104 2.85645 24.5925 2.85613 24.6747C2.85343 25.3992 2.87481 26.0559 3.33984 26.6424C3.86186 27.1536 4.49175 27.2375 5.19517 27.2361C5.24483 27.2363 5.2945 27.2364 5.34567 27.2365C5.51131 27.2369 5.67696 27.2368 5.84261 27.2368C5.9617 27.237 6.08078 27.2372 6.19987 27.2374C6.52287 27.2379 6.84587 27.2381 7.16887 27.2381C7.37084 27.2381 7.57281 27.2383 7.77478 27.2384C8.47989 27.239 9.18499 27.2392 9.8901 27.2391C10.5465 27.2391 11.203 27.2397 11.8594 27.2407C12.4237 27.2414 12.9879 27.2417 13.5522 27.2417C13.8889 27.2417 14.2256 27.2418 14.5623 27.2425C14.8792 27.243 15.196 27.243 15.5128 27.2426C15.6288 27.2426 15.7447 27.2427 15.8607 27.243C17.0543 27.2652 17.0543 27.2652 18.1055 26.7595C18.7055 26.1468 18.7 25.399 18.7034 24.5908C18.704 24.5076 18.7046 24.4244 18.7052 24.3412C18.7068 24.1163 18.708 23.8914 18.7092 23.6665C18.7105 23.4311 18.7121 23.1958 18.7136 22.9604C18.7166 22.5151 18.7192 22.0697 18.7217 21.6244C18.7246 21.1173 18.7278 20.6101 18.7311 20.103C18.7377 19.0601 18.744 18.0172 18.75 16.9744C19.3687 16.9744 19.9875 16.9744 20.625 16.9744C20.6303 18.2075 20.6346 19.4406 20.6371 20.6738C20.6383 21.2464 20.64 21.819 20.6427 22.3916C20.645 22.8909 20.6465 23.3902 20.647 23.8895C20.6474 24.1537 20.6481 24.4179 20.6498 24.6821C20.6514 24.9312 20.6519 25.1803 20.6515 25.4294C20.6516 25.5204 20.652 25.6114 20.6529 25.7024C20.6616 26.6162 20.4288 27.4947 19.7937 28.1843C19.1095 28.8199 18.3268 29.1807 17.3965 29.1776C17.3084 29.1779 17.3084 29.1779 17.2185 29.1784C17.0223 29.1791 16.826 29.179 16.6297 29.1789C16.4888 29.1793 16.3479 29.1797 16.2069 29.1801C15.8641 29.181 15.5212 29.1814 15.1784 29.1815C14.8995 29.1815 14.6207 29.1818 14.3418 29.1821C13.5501 29.1832 12.7585 29.1837 11.9668 29.1836C11.9242 29.1836 11.8815 29.1836 11.8376 29.1836C11.7949 29.1836 11.7522 29.1836 11.7082 29.1836C11.0169 29.1835 10.3255 29.1847 9.63414 29.1863C8.92328 29.188 8.21242 29.1888 7.50155 29.1887C7.10285 29.1887 6.70415 29.189 6.30545 29.1902C5.93027 29.1914 5.5551 29.1914 5.17992 29.1905C5.04255 29.1904 4.90518 29.1907 4.76781 29.1914C3.44005 29.1978 3.44005 29.1978 2.87109 28.9275C2.80666 28.8987 2.74224 28.8698 2.67586 28.8401C1.8203 28.3631 1.29653 27.683 0.993344 26.7457C0.93795 26.5269 0.922695 26.3448 0.922425 26.1198C0.922117 26.0615 0.922117 26.0615 0.921802 26.0021C0.921259 25.8724 0.921544 25.7427 0.92183 25.613C0.921611 25.5189 0.921341 25.4248 0.921025 25.3307C0.920309 25.0724 0.920324 24.8142 0.920462 24.5559C0.920486 24.2772 0.919839 23.9986 0.919283 23.7199C0.91831 23.174 0.917988 22.6281 0.917923 22.0823C0.917867 21.6385 0.917626 21.1947 0.917255 20.7509C0.916223 19.4923 0.915682 18.2337 0.91577 16.9752C0.915777 16.8734 0.915777 16.8734 0.915784 16.7696C0.915789 16.7017 0.915794 16.6338 0.915799 16.5638C0.915846 15.4632 0.914725 14.3626 0.913073 13.262C0.911389 12.1317 0.91058 11.0013 0.910681 9.8709C0.91072 9.2364 0.910399 8.60192 0.909137 7.96742C0.908069 7.42715 0.907816 6.88688 0.908611 6.3466C0.908993 6.07108 0.909001 5.79557 0.907983 5.52005C0.90706 5.2675 0.907231 5.01498 0.908251 4.76243C0.908431 4.67139 0.908219 4.58034 0.907564 4.4893C0.901449 3.57879 1.13624 2.70135 1.7688 2.01444C2.45256 1.3793 3.23509 1.01839 4.16484 1.02082Z" fill="white"/>
<path d="M10.7703 6.00023C10.8371 6.00075 10.9039 6.00128 10.9727 6.00183C12.0449 6.02379 13.0877 6.40862 13.8867 7.13914C13.9651 7.2095 13.9651 7.2095 14.0451 7.28128C14.6282 7.83168 15.0402 8.48481 15.293 9.24852C15.3082 9.29192 15.3234 9.33533 15.3391 9.38005C15.5107 9.94505 15.4974 10.5174 15.4949 11.1022C15.4944 11.2812 15.4961 11.4601 15.4979 11.6391C15.498 11.7543 15.498 11.8696 15.4978 11.9848C15.4985 12.0375 15.4991 12.0903 15.4998 12.1446C15.4942 12.6615 15.2996 13.1469 14.9414 13.5259C14.6709 13.7478 14.4213 13.9176 14.0625 13.936C14.0589 13.9989 14.0552 14.0617 14.0515 14.1264C13.9442 14.9687 13.3988 15.6824 12.7734 16.2212C12.7348 16.2212 12.6961 16.2212 12.6563 16.2212C12.6756 16.6079 12.6949 16.9946 12.7148 17.393C12.8502 17.4511 12.9855 17.5091 13.125 17.5688C13.1369 17.9379 13.1451 18.3069 13.1508 18.676C13.1531 18.8015 13.1563 18.927 13.1604 19.0525C13.1661 19.2332 13.1687 19.4137 13.1708 19.5944C13.1732 19.6503 13.1756 19.7062 13.1781 19.7637C13.1784 20.1479 13.1784 20.1479 13.0224 20.3163C12.8965 20.4101 12.8965 20.4101 12.7708 20.487C12.5173 20.6422 12.3976 20.8698 12.3047 21.143C12.2536 21.5733 12.27 21.9625 12.5391 22.3149C12.7893 22.5806 13.0377 22.7594 13.4081 22.8034C13.8576 22.8092 14.1822 22.7677 14.5166 22.4527C14.8369 22.1001 14.9108 21.7916 14.9009 21.3191C14.8631 20.951 14.7139 20.7183 14.4397 20.4765C14.3172 20.3788 14.1932 20.2927 14.0625 20.2055C14.0469 20.0393 14.0421 19.886 14.0453 19.7199C14.0456 19.6719 14.0458 19.624 14.0461 19.5745C14.0471 19.4211 14.0493 19.2677 14.0515 19.1142C14.0524 19.0103 14.0532 18.9064 14.0539 18.8025C14.0559 18.5475 14.0589 18.2926 14.0625 18.0376C15.1032 18.3733 16.1234 18.7845 16.6901 19.7629C17.2508 21.0018 16.875 22.4785 16.875 23.8384C12.8531 23.8384 8.83125 23.8384 4.6875 23.8384C4.6875 19.8563 4.6875 19.8563 5.27344 19.2095C5.30237 19.176 5.33129 19.1425 5.3611 19.1081C5.76508 18.7004 6.33929 18.5014 6.85547 18.272C6.90442 18.2495 6.95338 18.2271 7.00381 18.2041C7.05101 18.1826 7.09821 18.1611 7.14684 18.139C7.18936 18.1195 7.23189 18.1 7.27571 18.08C7.38281 18.0376 7.38281 18.0376 7.5 18.0376C7.51163 18.3399 7.52011 18.6421 7.52575 18.9445C7.5281 19.0473 7.5313 19.1501 7.53536 19.2528C7.56843 20.1096 7.56843 20.1096 7.39846 20.3478C7.27915 20.4361 7.16568 20.4956 7.03125 20.5571C6.64926 20.9693 6.61062 21.4232 6.61011 21.967C6.60903 22.028 6.60903 22.028 6.60793 22.0903C6.60726 22.3272 6.62508 22.515 6.73828 22.7251C6.90227 22.8071 7.02568 22.7985 7.20703 22.7837C7.357 22.6751 7.38159 22.6115 7.44141 22.4321C7.44733 22.3438 7.45046 22.2553 7.45171 22.1668C7.4531 22.1156 7.4545 22.0643 7.45594 22.0115C7.45845 21.904 7.46029 21.7964 7.46143 21.6888C7.47379 21.2982 7.47379 21.2982 7.60506 21.108C7.7409 21.0217 7.80943 20.9941 7.96875 20.9966C8.02676 20.9957 8.02676 20.9957 8.08594 20.9947C8.26944 21.0435 8.32882 21.1029 8.4375 21.2602C8.47182 21.454 8.47299 21.6461 8.47412 21.8425C8.46735 22.3 8.46735 22.3 8.61328 22.7251C8.77727 22.8071 8.90068 22.7985 9.08203 22.7837C9.232 22.6751 9.25659 22.6115 9.31641 22.4321C9.36885 21.4651 9.36885 21.4651 8.96484 20.6157C8.80099 20.4609 8.62515 20.3306 8.4375 20.2055C8.41636 20.0914 8.41636 20.0914 8.41754 19.9502C8.41756 19.871 8.41756 19.871 8.41758 19.7903C8.41849 19.7332 8.4194 19.6761 8.42033 19.6173C8.42058 19.559 8.42083 19.5006 8.42109 19.4405C8.42207 19.2536 8.42428 19.0667 8.42651 18.8799C8.4274 18.7534 8.4282 18.6269 8.42892 18.5004C8.43086 18.1898 8.4338 17.8793 8.4375 17.5688C8.57285 17.5108 8.7082 17.4528 8.84766 17.393C8.86699 17.0063 8.88633 16.6196 8.90625 16.2212C8.79023 16.1632 8.79023 16.1632 8.67188 16.104C8.05706 15.6167 7.68155 14.9283 7.5 14.1704C7.5 14.093 7.5 14.0157 7.5 13.936C7.42205 13.927 7.42205 13.927 7.34253 13.9177C6.92561 13.8312 6.59574 13.5451 6.35742 13.1999C6.113 12.8127 6.07516 12.455 6.07407 12.0081C6.07368 11.9522 6.07329 11.8963 6.07288 11.8386C6.07229 11.7203 6.07202 11.6019 6.07203 11.4836C6.07178 11.3054 6.06966 11.1272 6.06743 10.949C6.0624 10.0978 6.14405 9.34595 6.55151 8.58201C6.57188 8.54284 6.59225 8.50366 6.61324 8.46329C6.78044 8.14981 6.96674 7.87073 7.20703 7.60789C7.25394 7.55562 7.30084 7.50336 7.34917 7.44951C8.25079 6.49438 9.46064 5.98773 10.7703 6.00023ZM11.0687 11.1196C11.0222 11.168 10.9757 11.2165 10.9277 11.2663C10.6364 11.5685 10.4872 11.6019 10.074 11.6108C10.0274 11.612 9.9807 11.6132 9.93263 11.6145C9.78338 11.6183 9.63412 11.6218 9.48486 11.6252C9.38377 11.6278 9.28268 11.6303 9.1816 11.6329C8.93357 11.6392 8.68554 11.6451 8.4375 11.6509C8.43456 11.905 8.43246 12.1592 8.43106 12.4133C8.43048 12.4995 8.42969 12.5856 8.42866 12.6717C8.4173 13.6517 8.48654 14.4779 9.18503 15.2226C9.72228 15.7121 10.3009 15.8476 11.0149 15.8291C11.6388 15.7937 12.1145 15.4884 12.5375 15.0454C13.0254 14.4662 13.1337 13.8077 13.1307 13.0699C13.1306 13.029 13.1306 12.988 13.1305 12.9458C13.1301 12.8169 13.1294 12.688 13.1287 12.5591C13.1284 12.4709 13.1281 12.3827 13.1279 12.2945C13.1272 12.0799 13.1262 11.8654 13.125 11.6509C13.092 11.6512 13.0589 11.6516 13.0249 11.652C11.9462 11.6556 11.9462 11.6556 11.6565 11.3945C11.5629 11.2869 11.5629 11.2869 11.4844 11.1821C11.3975 11.082 11.3975 11.082 11.3086 11.0063C11.1779 10.9931 11.1779 10.9931 11.0687 11.1196ZM9.84375 16.6899C9.80392 16.9539 9.78857 17.1892 9.84375 17.4516C10.0316 17.6579 10.2454 17.7865 10.4883 17.9204C10.5463 17.9591 10.6043 17.9977 10.6641 18.0376C10.9312 18.023 11.1072 17.8936 11.3232 17.7446C11.4161 17.6812 11.4161 17.6812 11.5109 17.6164C11.6498 17.5238 11.6498 17.5238 11.7188 17.4516C11.723 17.3235 11.7237 17.1953 11.7224 17.0671C11.7219 16.997 11.7214 16.9268 11.7208 16.8545C11.7201 16.8002 11.7195 16.7459 11.7188 16.6899C11.6766 16.6994 11.6345 16.7089 11.591 16.7187C11.4317 16.7475 11.2871 16.7561 11.1255 16.7563C11.0416 16.7564 11.0416 16.7564 10.9561 16.7565C10.8984 16.7563 10.8407 16.7561 10.7813 16.7558C10.7235 16.7561 10.6658 16.7563 10.6064 16.7565C10.5505 16.7565 10.4946 16.7564 10.437 16.7563C10.3864 16.7562 10.3358 16.7562 10.2837 16.7561C10.132 16.7483 9.99167 16.7233 9.84375 16.6899Z" fill="white"/>
<path d="M18.2902 6.54661C18.3318 6.54634 18.3733 6.54608 18.4161 6.5458C18.555 6.54506 18.6939 6.54516 18.8328 6.54525C18.9325 6.5449 19.0323 6.5445 19.132 6.54406C19.4027 6.54302 19.6734 6.54275 19.9441 6.54268C20.1133 6.54259 20.2825 6.54234 20.4517 6.54203C21.0423 6.54095 21.6328 6.54047 22.2234 6.54056C22.7734 6.54063 23.3235 6.53939 23.8736 6.53754C24.3462 6.53601 24.8188 6.53538 25.2913 6.53546C25.5735 6.53549 25.8556 6.53516 26.1377 6.53391C26.4031 6.53278 26.6685 6.53277 26.934 6.53362C27.0312 6.53374 27.1284 6.53347 27.2256 6.53276C28.2262 6.52593 28.2262 6.52593 28.6665 6.91178C28.6981 6.94992 28.7297 6.98806 28.7622 7.02736C28.7947 7.06536 28.8272 7.10335 28.8606 7.14249C29.0228 7.3778 29.0771 7.58692 29.0782 7.87073C29.0789 7.96349 29.0789 7.96349 29.0797 8.05814C29.0796 8.159 29.0796 8.159 29.0795 8.26191C29.0799 8.33321 29.0803 8.40451 29.0807 8.47797C29.0816 8.67313 29.082 8.86828 29.0821 9.06344C29.0822 9.18554 29.0824 9.30763 29.0828 9.42973C29.0838 9.85615 29.0843 10.2826 29.0842 10.709C29.0842 11.1057 29.0854 11.5024 29.0872 11.8991C29.0888 12.2403 29.0894 12.5815 29.0893 12.9228C29.0893 13.1263 29.0896 13.3298 29.0909 13.5333C29.0922 13.7605 29.0917 13.9877 29.091 14.2149C29.0916 14.2818 29.0923 14.3487 29.093 14.4176C29.0894 14.8735 29.0218 15.1889 28.713 15.5413C28.6749 15.5729 28.6367 15.6045 28.5974 15.637C28.5594 15.6695 28.5214 15.7019 28.4823 15.7354C28.2323 15.9077 28.0169 15.9519 27.7158 15.9506C27.612 15.9506 27.612 15.9506 27.5061 15.9506C27.395 15.9496 27.395 15.9496 27.2816 15.9487C27.1671 15.9485 27.1671 15.9485 27.0503 15.9482C26.8481 15.9478 26.6459 15.9466 26.4437 15.9453C26.2371 15.9441 26.0305 15.9436 25.8239 15.943C25.4191 15.9417 25.0142 15.9397 24.6094 15.9373C24.5918 15.9734 24.5741 16.0096 24.556 16.0469C24.4864 16.1831 24.4049 16.2988 24.3137 16.4216C24.2786 16.4689 24.2436 16.5163 24.2075 16.5651C24.1709 16.6141 24.1344 16.6631 24.0967 16.7136C24.061 16.7618 24.0254 16.8099 23.9887 16.8594C23.9177 16.955 23.8467 17.0505 23.7755 17.1459C23.7069 17.2379 23.6387 17.3303 23.5711 17.4231C23.54 17.4654 23.5089 17.5077 23.4769 17.5514C23.4494 17.589 23.422 17.6267 23.3937 17.6655C23.2653 17.8198 23.1852 17.814 22.9797 17.8342C22.7988 17.8475 22.7445 17.8206 22.6023 17.7031C22.3705 17.4522 22.1703 17.1731 21.9653 16.9004C21.9234 16.845 21.8815 16.7896 21.8383 16.7325C21.7266 16.5848 21.6152 16.4369 21.5039 16.2888C21.4705 16.2468 21.4372 16.2047 21.4028 16.1614C21.3281 16.0545 21.3281 16.0545 21.3281 15.9373C21.2859 15.9378 21.2436 15.9383 21.2 15.9389C20.8001 15.9436 20.4002 15.9471 20.0002 15.9494C19.7946 15.9506 19.589 15.9523 19.3835 15.955C19.1467 15.958 18.9099 15.9591 18.6731 15.9602C18.5999 15.9614 18.5267 15.9626 18.4513 15.9638C17.9693 15.964 17.6437 15.9144 17.271 15.5878C17.2236 15.5306 17.2236 15.5306 17.1753 15.4722C17.1428 15.4342 17.1103 15.3962 17.0769 15.3571C16.9147 15.1217 16.8604 14.9126 16.8593 14.6288C16.8588 14.567 16.8583 14.5051 16.8578 14.4414C16.8579 14.3742 16.8579 14.3069 16.858 14.2376C16.8576 14.1663 16.8572 14.095 16.8568 14.0216C16.8559 13.8264 16.8555 13.6313 16.8554 13.4361C16.8553 13.314 16.8551 13.1919 16.8548 13.0698C16.8537 12.6434 16.8532 12.217 16.8533 11.7906C16.8534 11.3938 16.8521 10.9972 16.8503 10.6004C16.8487 10.2592 16.8481 9.91801 16.8482 9.57678C16.8482 9.37326 16.8479 9.16976 16.8466 8.96624C16.8453 8.73904 16.8458 8.51186 16.8465 8.28465C16.8459 8.21777 16.8452 8.15088 16.8445 8.08196C16.8481 7.62607 16.9157 7.31062 17.2245 6.95824C17.2627 6.92667 17.3008 6.8951 17.3401 6.86257C17.3781 6.83009 17.4161 6.79761 17.4552 6.76415C17.7283 6.57602 17.9618 6.54747 18.2902 6.54661ZM19.8047 9.55056C19.7215 9.71701 19.7277 9.83502 19.7461 10.0193C19.8769 10.1862 19.9541 10.2449 20.1563 10.3123C20.3336 10.3186 20.5096 10.3215 20.687 10.3217C20.7685 10.3222 20.7685 10.3222 20.8516 10.3226C21.0316 10.3235 21.2116 10.3239 21.3915 10.3242C21.5166 10.3245 21.6416 10.3249 21.7666 10.3252C22.0289 10.3258 22.2912 10.3261 22.5535 10.3264C22.8894 10.3267 23.2253 10.3281 23.5613 10.3297C23.8196 10.3308 24.0779 10.3311 24.3362 10.3312C24.4601 10.3314 24.5839 10.3319 24.7077 10.3327C24.8811 10.3337 25.0544 10.3335 25.2278 10.3332C25.2788 10.3337 25.3299 10.3342 25.3825 10.3348C25.6756 10.3328 25.8794 10.3008 26.1328 10.1365C26.216 9.97004 26.2098 9.85204 26.1914 9.66774C26.0606 9.50088 25.9834 9.44216 25.7813 9.37478C25.6039 9.36849 25.4279 9.36556 25.2505 9.36533C25.169 9.3649 25.169 9.3649 25.0859 9.36445C24.9059 9.3636 24.726 9.3632 24.546 9.36287C24.421 9.36254 24.2959 9.3622 24.1709 9.36186C23.9086 9.36125 23.6463 9.3609 23.384 9.3607C23.0481 9.36038 22.7122 9.35897 22.3762 9.3573C22.1179 9.35621 21.8596 9.35591 21.6013 9.35582C21.4775 9.35564 21.3536 9.35517 21.2298 9.3544C21.0564 9.3534 20.8831 9.35351 20.7097 9.35389C20.6587 9.35335 20.6076 9.35281 20.555 9.35225C20.2619 9.35427 20.0581 9.38626 19.8047 9.55056ZM19.8047 12.3631C19.7215 12.5295 19.7277 12.6475 19.7461 12.8318C19.8769 12.9987 19.9541 13.0574 20.1563 13.1248C20.3336 13.1311 20.5096 13.134 20.687 13.1342C20.7685 13.1347 20.7685 13.1347 20.8516 13.1351C21.0316 13.136 21.2116 13.1364 21.3915 13.1367C21.5166 13.137 21.6416 13.1374 21.7666 13.1377C22.0289 13.1383 22.2912 13.1386 22.5535 13.1389C22.8894 13.1392 23.2253 13.1406 23.5613 13.1422C23.8196 13.1433 24.0779 13.1436 24.3362 13.1437C24.4601 13.1439 24.5839 13.1444 24.7077 13.1452C24.8811 13.1462 25.0544 13.146 25.2278 13.1457C25.2788 13.1462 25.3299 13.1467 25.3825 13.1473C25.6756 13.1453 25.8794 13.1133 26.1328 12.949C26.216 12.7825 26.2098 12.6645 26.1914 12.4802C26.0606 12.3134 25.9834 12.2547 25.7813 12.1873C25.6039 12.181 25.4279 12.1781 25.2505 12.1778C25.169 12.1774 25.169 12.1774 25.0859 12.177C24.9059 12.1761 24.726 12.1757 24.546 12.1754C24.421 12.175 24.2959 12.1747 24.1709 12.1744C23.9086 12.1737 23.6463 12.1734 23.384 12.1732C23.0481 12.1729 22.7122 12.1715 22.3762 12.1698C22.1179 12.1687 21.8596 12.1684 21.6013 12.1683C21.4775 12.1681 21.3536 12.1677 21.2298 12.1669C21.0564 12.1659 20.8831 12.166 20.7097 12.1664C20.6587 12.1659 20.6076 12.1653 20.555 12.1648C20.2619 12.1668 20.0581 12.1988 19.8047 12.3631Z" fill="white"/>
<path d="M13.8281 15.0255C13.9746 15.1134 13.9746 15.1134 14.0625 15.2599C14.1089 15.4955 14.0989 15.6679 13.9746 15.8751C13.7674 15.9994 13.595 16.0093 13.3594 15.963C13.2129 15.8751 13.2129 15.8751 13.125 15.7286C13.0787 15.493 13.0886 15.3206 13.2129 15.1134C13.4201 14.9891 13.5925 14.9791 13.8281 15.0255Z" fill="white"/>
</svg>
