<svg width="30" height="30" viewBox="0 0 30 30" fill="none" xmlns="http://www.w3.org/2000/svg">
<path d="M24.1518 4.58702C24.1853 4.61681 24.2188 4.64661 24.2533 4.67731C26.9622 7.0972 28.5602 10.5838 28.7807 14.1964C28.9149 18.0402 27.669 21.7054 25.0417 24.5419C23.8891 25.7652 22.591 26.7161 21.1049 27.4972C21.0668 27.5175 21.0287 27.5379 20.9894 27.5589C19.7225 28.2279 18.2945 28.6213 16.8862 28.8448C16.8422 28.8524 16.7983 28.8599 16.7531 28.8676C14.5852 29.2307 12.2295 28.9153 10.1662 28.2186C10.083 28.1907 10.083 28.1907 9.99821 28.1623C9.70753 28.0587 9.45195 27.9408 9.19183 27.7741C8.70494 27.4703 8.30191 27.2608 7.71938 27.39C7.55575 27.4334 7.39395 27.4819 7.23192 27.5308C7.14247 27.5561 7.05296 27.5811 6.96338 27.6059C6.77403 27.6586 6.58499 27.7122 6.39609 27.7665C5.96197 27.8903 5.52443 28.0009 5.08711 28.1128C4.84204 28.1756 4.59721 28.2394 4.35236 28.3031C4.25423 28.3286 4.15611 28.3541 4.05799 28.3795C3.98483 28.3985 3.98483 28.3985 3.9102 28.4179C3.70835 28.4704 3.50649 28.5227 3.30463 28.5751C3.10717 28.6264 2.90971 28.6776 2.71226 28.7289C2.61957 28.753 2.52689 28.7771 2.4342 28.8011C2.30545 28.8345 2.17671 28.868 2.04797 28.9014C2.00813 28.9118 1.96828 28.9221 1.92722 28.9328C1.64301 29.0067 1.3602 29.085 1.07816 29.1669C0.948654 29.1964 0.948654 29.1964 0.714279 29.1964C0.866983 28.5769 1.02686 27.9599 1.19447 27.3443C1.21754 27.2593 1.24061 27.1743 1.26366 27.0894C1.312 26.9113 1.3604 26.7333 1.40884 26.5553C1.47141 26.3253 1.53379 26.0952 1.59611 25.8651C2.04259 24.2171 2.04259 24.2171 2.26953 23.4293C2.28404 23.3786 2.29854 23.3279 2.31349 23.2757C2.37664 23.0553 2.44056 22.8352 2.50634 22.6155C2.52744 22.5424 2.54854 22.4692 2.57028 22.3938C2.5974 22.3027 2.5974 22.3027 2.62506 22.2098C2.65247 22.0154 2.61841 21.9286 2.53069 21.755C2.49803 21.686 2.49803 21.686 2.46472 21.6157C2.44095 21.5678 2.41717 21.52 2.39267 21.4707C0.635701 17.8976 0.365793 13.9839 1.64972 10.2067C1.7997 9.78518 1.97953 9.38167 2.17912 8.98155C2.20415 8.93116 2.22918 8.88077 2.25497 8.82886C2.56505 8.20991 2.88452 7.60869 3.2924 7.04795C3.33312 6.99131 3.37383 6.93466 3.41577 6.87629C4.27284 5.70826 5.27619 4.61386 6.45647 3.7667C6.51734 3.72214 6.57822 3.67758 6.64095 3.63166C8.6228 2.21745 10.9438 1.31238 13.3705 1.07139C13.4347 1.0649 13.4989 1.0584 13.5651 1.05171C17.4407 0.718994 21.2598 2.00287 24.1518 4.58702ZM6.15617 7.29698C4.18029 9.53543 3.05946 12.5689 3.24205 15.5619C3.3736 17.484 3.87924 19.5734 5.01603 21.1683C5.0434 21.2071 5.07077 21.2458 5.09897 21.2858C5.13735 21.3366 5.13735 21.3366 5.17652 21.3885C5.33659 21.8158 5.06095 22.4065 4.94379 22.8236C4.9215 22.904 4.89925 22.9843 4.87704 23.0647C4.81884 23.275 4.76029 23.4852 4.70163 23.6953C4.60747 24.0327 4.51364 24.3701 4.42023 24.7076C4.38757 24.8253 4.35464 24.9428 4.32168 25.0604C4.30192 25.1316 4.28217 25.2028 4.26182 25.2762C4.2443 25.3389 4.22678 25.4016 4.20873 25.4663C4.16447 25.6239 4.16447 25.6239 4.17131 25.798C4.67417 25.7171 5.1611 25.5953 5.6524 25.4622C5.73105 25.4412 5.8097 25.4202 5.88836 25.3992C6.21929 25.311 6.55008 25.2223 6.88071 25.133C7.08421 25.078 7.28784 25.0236 7.49157 24.9696C7.56878 24.949 7.64595 24.9281 7.72305 24.9071C7.83042 24.8778 7.938 24.8493 8.04558 24.8208C8.10661 24.8044 8.16764 24.788 8.23052 24.771C8.48651 24.7265 8.64039 24.8018 8.85835 24.93C11.6176 26.52 14.7438 26.9744 17.8391 26.1812C19.7463 25.6613 21.4413 24.6377 22.8627 23.2784C22.917 23.2272 22.9713 23.176 23.0273 23.1232C23.4463 22.7179 23.8079 22.2829 24.1518 21.8136C24.1762 21.7804 24.2005 21.7472 24.2257 21.713C26.0357 19.2118 26.6802 16.1307 26.2344 13.1001C25.9536 11.3999 25.2897 9.73036 24.269 8.33702C24.2246 8.27606 24.1803 8.21511 24.1346 8.15231C23.8041 7.70665 23.4415 7.29609 23.0581 6.89543C22.9914 6.82563 22.9256 6.75503 22.86 6.68426C20.8639 4.59012 17.9024 3.54043 15.0697 3.41514C11.6246 3.34047 8.50002 4.82858 6.15617 7.29698Z" fill="white"/>
<path d="M10.3176 8.00219C10.3779 8.00112 10.3779 8.00112 10.4394 8.00002C10.7135 7.99924 10.9507 8.02433 11.2075 8.13037C11.4914 8.41498 11.6229 8.73192 11.7705 9.10174C11.7947 9.16079 11.8188 9.21984 11.8437 9.28068C11.9203 9.46829 11.996 9.65625 12.0717 9.84423C12.1235 9.97152 12.1753 10.0988 12.2271 10.226C12.3408 10.5048 12.4538 10.7839 12.5664 11.0632C12.5989 11.1415 12.6344 11.2186 12.6723 11.2944C12.7343 11.583 12.7132 11.8039 12.5732 12.0658C12.3132 12.4447 12.0252 12.7935 11.7144 13.1323C11.585 13.3385 11.5852 13.4568 11.6176 13.6968C11.7076 13.8932 11.7076 13.8932 11.841 14.0813C11.8645 14.1163 11.888 14.1513 11.9122 14.1873C13.0444 15.8466 14.5723 17.2139 16.4809 17.9155C16.7153 17.9369 16.7975 17.938 16.9972 17.8093C17.3289 17.5018 17.598 17.1273 17.8713 16.7688C17.8978 16.7342 17.9243 16.6995 17.9515 16.6638C18.0031 16.5959 18.0544 16.5279 18.1054 16.4596C18.2846 16.2227 18.2846 16.2227 18.4145 16.1577C18.9751 16.113 19.4629 16.4148 19.9452 16.6594C20.0278 16.7004 20.1103 16.7414 20.1929 16.7822C20.3986 16.8842 20.6036 16.9873 20.8086 17.0907C20.9383 17.156 21.0684 17.2206 21.1985 17.2852C21.2413 17.3064 21.2841 17.3276 21.3282 17.3495C21.4098 17.39 21.4914 17.4304 21.573 17.4707C21.7386 17.5531 21.8932 17.637 22.0473 17.7397C22.2423 18.3246 22.0504 19.0963 21.8019 19.6404C21.3682 20.4178 20.4965 20.8874 19.6706 21.1446C18.7223 21.3688 17.6799 21.2219 16.7739 20.9038C16.726 20.8875 16.6781 20.8711 16.6288 20.8543C15.3843 20.4242 14.2048 19.8666 13.141 19.0874C13.1046 19.0608 13.0682 19.0343 13.0307 19.0069C12.4626 18.5876 11.9491 18.1126 11.4418 17.6226C11.4112 17.5932 11.3806 17.5639 11.349 17.5337C10.9567 17.1568 10.6082 16.759 10.27 16.3335C10.187 16.2346 10.1039 16.1357 10.0209 16.0369C8.85398 14.6031 7.73523 12.9307 7.86761 11.0015C7.97538 9.95891 8.41287 9.10204 9.15667 8.36474C9.53195 8.06339 9.84763 8.00263 10.3176 8.00219Z" fill="white"/>
</svg>
